<svg xmlns="http://www.w3.org/2000/svg" viewBox="0 0 512 512" id="christmas-decoration">
  <path fill="#7a6d79" d="M256 122.163a7.5 7.5 0 0 1-7.5-7.5V7.5a7.5 7.5 0 0 1 15 0v107.163a7.5 7.5 0 0 1-7.5 7.5Z"></path>
  <path fill="#46cc8d" d="m361.377 160.961-10.911 97.535a18.819 18.819 0 0 0 6.376 16.313l74.16 64.282a18.819 18.819 0 0 1-8.536 32.654l-96.133 19.763a18.819 18.819 0 0 0-13.544 11.105l-38.219 90.396a18.819 18.819 0 0 1-33.694 1.971l-48.502-85.32a18.819 18.819 0 0 0-14.746-9.45l-97.782-8.415a18.819 18.819 0 0 1-12.287-31.435l66.157-72.494a18.819 18.819 0 0 0 4.43-16.945l-22.214-95.596a18.819 18.819 0 0 1 26.1-21.4l89.39 40.517a18.819 18.819 0 0 0 17.484-1.023l84.053-50.667a18.819 18.819 0 0 1 28.418 18.21Z"></path>
  <path fill="#e53950" d="M443.63 258.26a18.513 18.513 0 0 1-5.6 11.41l-70.28 68.5a18.84 18.84 0 0 0-5.41 16.66l16.59 96.73a18.514 18.514 0 0 1-3.13 14.02 19.185 19.185 0 0 1-12.86 7.84 18.49 18.49 0 0 1-11.31-2.02l-86.87-45.67a18.844 18.844 0 0 0-17.52 0l-86.87 45.67a18.399 18.399 0 0 1-12 1.9 19.14 19.14 0 0 1-12.55-8.28 18.496 18.496 0 0 1-2.75-13.46l16.59-96.73a18.84 18.84 0 0 0-5.41-16.66l-70.28-68.5a18.468 18.468 0 0 1-5.68-14.25 19.105 19.105 0 0 1 6.57-13.57 18.617 18.617 0 0 1 9.54-4.28l97.12-14.11a18.808 18.808 0 0 0 14.17-10.3l43.43-88.01a18.549 18.549 0 0 1 9.38-8.96 19.234 19.234 0 0 1 15 0 18.549 18.549 0 0 1 9.38 8.96l43.43 88.01a18.808 18.808 0 0 0 14.17 10.3l97.12 14.11a18.468 18.468 0 0 1 11.59 6.34 19.144 19.144 0 0 1 4.44 14.35Z"></path>
  <path fill="#ca2e43" d="M263.5 116.19v171.29a7.5 7.5 0 1 1-15 0V116.19a19.234 19.234 0 0 1 15 0zm112.3 349.39a19.185 19.185 0 0 1-12.86 7.84l-95.92-129.75a7.497 7.497 0 1 1 12.06-8.91zM244.89 343.64 148.37 473.3a19.14 19.14 0 0 1-12.55-8.28l97.04-130.34a7.5 7.5 0 1 1 12.03 8.96zm198.74-85.38-185.15 64.97a7.497 7.497 0 1 1-4.96-14.15l185.67-65.17a19.144 19.144 0 0 1 4.44 14.35zm-207.52 50.61a7.486 7.486 0 0 1-9.62 4.47l-158.2-57.92a19.105 19.105 0 0 1 6.57-13.57l156.78 57.4a7.507 7.507 0 0 1 4.47 9.62z"></path>
  <circle cx="256" cy="316.157" r="40.309" fill="#fed402"></circle>
  <path fill="#fac600" d="M275.995 281.162a40.302 40.302 0 0 1-54.99 54.99 40.306 40.306 0 1 0 54.99-54.99Z"></path>
  <path fill="#7a6d79" d="M462.433 110.524a7.5 7.5 0 0 1-7.5-7.5V7.5a7.5 7.5 0 0 1 15 0v95.524a7.5 7.5 0 0 1-7.5 7.5Z"></path>
  <path fill="#fed402" d="m466.038 90.265 9.885 20.03a4.02 4.02 0 0 0 3.027 2.199l22.104 3.212a4.02 4.02 0 0 1 2.228 6.857l-15.995 15.59a4.02 4.02 0 0 0-1.156 3.56l3.776 22.014a4.02 4.02 0 0 1-5.833 4.238l-19.77-10.394a4.02 4.02 0 0 0-3.742 0l-19.77 10.394a4.02 4.02 0 0 1-5.834-4.238l3.776-22.015a4.02 4.02 0 0 0-1.156-3.558l-15.994-15.591a4.02 4.02 0 0 1 2.228-6.857l22.103-3.212a4.02 4.02 0 0 0 3.027-2.2l9.885-20.029a4.02 4.02 0 0 1 7.21 0Z"></path>
  <path fill="#7a6d79" d="M49.567 110.524a7.5 7.5 0 0 1-7.5-7.5V7.5a7.5 7.5 0 0 1 15 0v95.524a7.5 7.5 0 0 1-7.5 7.5Z"></path>
  <path fill="#fed402" d="m53.173 90.265 9.885 20.03a4.02 4.02 0 0 0 3.027 2.199l22.103 3.212a4.02 4.02 0 0 1 2.228 6.857l-15.994 15.59a4.02 4.02 0 0 0-1.156 3.56l3.776 22.014a4.02 4.02 0 0 1-5.834 4.238l-19.77-10.394a4.02 4.02 0 0 0-3.741 0l-19.77 10.394a4.02 4.02 0 0 1-5.834-4.238l3.776-22.015a4.02 4.02 0 0 0-1.156-3.558L8.718 122.563a4.02 4.02 0 0 1 2.228-6.857l22.104-3.212a4.02 4.02 0 0 0 3.027-2.2l9.885-20.029a4.02 4.02 0 0 1 7.21 0Z"></path>
  <path fill="#fac600" d="M74.425 138.145a4.039 4.039 0 0 0-1.16 3.56l3.78 22.02a4.02 4.02 0 0 1-5.84 4.23l-19.77-10.39a4.644 4.644 0 0 0-.94-.35 58.026 58.026 0 0 0 13.24-30.12 56.735 56.735 0 0 0-.48-16.47 3.977 3.977 0 0 0 2.83 1.86l22.1 3.22a4.014 4.014 0 0 1 2.23 6.85zm412.865.034a4.039 4.039 0 0 0-1.16 3.56l3.78 22.02a4.02 4.02 0 0 1-5.84 4.23l-19.77-10.39a4.643 4.643 0 0 0-.94-.35 58.026 58.026 0 0 0 13.24-30.12 56.735 56.735 0 0 0-.48-16.47 3.977 3.977 0 0 0 2.83 1.86l22.1 3.22a4.014 4.014 0 0 1 2.23 6.85z"></path>
</svg>
