<svg xmlns="http://www.w3.org/2000/svg" viewBox="0 0 512 512" id="christmas-tree">
  <path fill="#d88a55" d="M285 406.03v88.47a10.004 10.004 0 0 1-10 10h-38a10.004 10.004 0 0 1-10-10v-88.47Z"></path>
  <path fill="#c57a44" d="M285 406.03v69.46l-58-59.1v-10.36h58z"></path>
  <path fill="#e53950" d="M370.001 453h-.06a7.5 7.5 0 0 1-7.441-7.56l.286-36.435a7.5 7.5 0 0 1 7.499-7.441h.06a7.5 7.5 0 0 1 7.441 7.56l-.286 36.435a7.5 7.5 0 0 1-7.499 7.441Z"></path>
  <circle cx="370" cy="468" r="22.5" fill="#fed402"></circle>
  <path fill="#fac600" d="M383.398 449.925a22.5 22.5 0 0 1-34.796 25.032 22.5 22.5 0 1 0 34.796-25.032Z"></path>
  <path fill="#e53950" d="M141.999 453a7.5 7.5 0 0 1-7.499-7.44l-.286-36.438a7.5 7.5 0 0 1 15-.118l.286 36.437a7.5 7.5 0 0 1-7.44 7.559Z"></path>
  <circle cx="142" cy="468" r="22.5" fill="#fed402"></circle>
  <path fill="#46cc8d" d="M436.67 396.93a819.475 819.475 0 0 1-178.17 20.09 820.131 820.131 0 0 1-164.76-16.15c-6.41-1.29-12.56-2.62-18.45-3.95a8.538 8.538 0 0 1-4.1-2.15 5.655 5.655 0 0 1-.42-.43c0-.01 0-.01-.01-.01a7.541 7.541 0 0 1-.69-.94 9.171 9.171 0 0 1-.52-1.04c-.08-.22-.15-.43-.21-.65a.076.076 0 0 0-.01-.04c-.04-.18-.08-.37-.11-.56a.22.22 0 0 1-.01-.08c-.02-.14-.04-.28-.05-.42a6.602 6.602 0 0 1 0-.89 6.22 6.22 0 0 1 1.75-3.86l.84-.9L240.5 204.21l8.92-9.55a7.823 7.823 0 0 1 .66-.63 9.555 9.555 0 0 1 11.84 0 7.832 7.832 0 0 1 .66.63l106.03 113.56 10.32 11.05 62.16 66.58c3.69 3.96 1.36 9.77-4.42 11.08Z"></path>
  <path fill="#00c27a" d="M436.67 396.93a819.475 819.475 0 0 1-178.17 20.09 820.131 820.131 0 0 1-164.76-16.15c-6.41-1.29-12.56-2.62-18.45-3.95a8.538 8.538 0 0 1-4.1-2.15 5.655 5.655 0 0 1-.42-.43c0-.01 0-.01-.01-.01a7.541 7.541 0 0 1-.69-.94 9.171 9.171 0 0 1-.52-1.04c-.08-.22-.15-.43-.21-.65a.076.076 0 0 0-.01-.04c-.04-.18-.08-.37-.11-.56a.22.22 0 0 1-.01-.08c-.02-.14-.04-.28-.05-.42a6.602 6.602 0 0 1 0-.89 617.144 617.144 0 0 0 67.78 10.19 576.568 576.568 0 0 0 76.56 2.12c60.36-2.37 124.42-16.24 158.32-24.61a14.913 14.913 0 0 0 7.31-24.66l-19.78-21.2-10.5-11.24-108.35-116.1 8.92-9.55a7.823 7.823 0 0 1 .66-.63 8.98 8.98 0 0 1 11.84 0 7.832 7.832 0 0 1 .66.63l106.03 113.56 10.32 11.05 62.16 66.58c3.69 3.96 1.36 9.77-4.42 11.08Z"></path>
  <path fill="#f4d902" d="M69.16 389.71a617.144 617.144 0 0 0 67.78 10.19q-16.455 1.08-33.06 1.07-5.07 0-10.14-.1c-6.41-1.29-12.56-2.62-18.45-3.95a8.538 8.538 0 0 1-4.1-2.15 5.655 5.655 0 0 1-.42-.43c0-.01 0-.01-.01-.01a7.541 7.541 0 0 1-.69-.94 9.171 9.171 0 0 1-.52-1.04c-.08-.22-.15-.43-.21-.65a.076.076 0 0 0-.01-.04c-.04-.18-.08-.37-.11-.56a.22.22 0 0 1-.01-.08c-.02-.14-.04-.28-.05-.42a6.602 6.602 0 0 1 0-.89zm309.77-70.44a7.088 7.088 0 0 1-1.04.82q-9.15 5.94-18.54 11.46l-10.5-11.24q10.02-5.805 19.76-12.09z"></path>
  <path fill="#46cc8d" d="M409.45 301.52a695.395 695.395 0 0 1-151.32 17.06 695.321 695.321 0 0 1-155.63-17.07c-4.89-1.11-6.84-6.05-3.72-9.4l62.83-67.29 88.8-95.11a7.993 7.993 0 0 1 11.18 0l88.79 95.11 62.83 67.29c3.14 3.36 1.16 8.3-3.76 9.41Z"></path>
  <path fill="#46cc8d" d="M409.45 301.52a704.636 704.636 0 0 1-151.32 17.06 695.321 695.321 0 0 1-155.63-17.07c-3.89-.88-5.92-4.19-5.01-7.19a5.482 5.482 0 0 1 1.29-2.21l62.83-67.29 7.01-7.51 10.24-10.97 61.64-66.02 9.91-10.61a7.993 7.993 0 0 1 11.18 0l88.79 95.11 60.96 65.29h.01l1.86 2c3.14 3.36 1.16 8.3-3.76 9.41Z"></path>
  <path fill="#00c27a" d="M409.45 301.52q-7.68 1.74-16.07 3.43a696.535 696.535 0 0 1-135.25 13.63 695.321 695.321 0 0 1-155.63-17.07c-3.89-.88-5.92-4.19-5.01-7.19a698.084 698.084 0 0 0 115.64 9.26c28.51-.08 64.07-5.82 93.95-11.93 12.54-2.57 24.07-5.2 33.66-7.51 1.26-.3 2.48-.59 3.66-.88a14.503 14.503 0 0 0 7.15-23.99l-46.17-49.45-64.88-69.5 9.91-10.61a7.993 7.993 0 0 1 11.18 0l88.79 95.11 60.97 65.29 1.86 2c3.14 3.36 1.16 8.3-3.76 9.41Z"></path>
  <circle cx="341.794" cy="263.5" r="7.5" fill="#0067c5"></circle>
  <circle cx="362" cy="369.042" r="7.5" fill="#fed402"></circle>
  <circle cx="146.433" cy="365.414" r="7.5" fill="#0067c5"></circle>
  <circle cx="285" cy="376.542" r="22.5" fill="#00c27a"></circle>
  <circle cx="181.243" cy="262.242" r="7.5" fill="#fed402"></circle>
  <path fill="#fed402" d="M378.93 319.27a7.088 7.088 0 0 1-1.04.82q-9.15 5.94-18.54 11.46A500.89 500.89 0 0 1 269.97 373a500.459 500.459 0 0 1-133.03 26.9q-16.455 1.08-33.06 1.07-5.07 0-10.14-.1c-6.41-1.29-12.56-2.62-18.45-3.95a8.538 8.538 0 0 1-4.1-2.15 5.655 5.655 0 0 1-.42-.43c0-.01 0-.01-.01-.01a7.541 7.541 0 0 1-.69-.94 9.171 9.171 0 0 1-.52-1.04c-.08-.22-.15-.43-.21-.65a.076.076 0 0 0-.01-.04c-.04-.18-.08-.37-.11-.56a.22.22 0 0 1-.01-.08c-.02-.14-.04-.28-.05-.42a6.602 6.602 0 0 1 0-.89 6.22 6.22 0 0 1 1.75-3.86l.84-.9c66.52 4.19 131.54-4.59 193.28-26.12a485.25 485.25 0 0 0 83.82-38.52q10.02-5.805 19.76-12.09Z"></path>
  <path fill="#fac600" d="M378.93 319.27a7.088 7.088 0 0 1-1.04.82q-9.15 5.94-18.54 11.46l-10.5-11.24q10.02-5.805 19.76-12.09Z"></path>
  <path fill="#f4d902" d="M136.94 399.9q-16.455 1.08-33.06 1.07-5.07 0-10.14-.1c-6.41-1.29-12.56-2.62-18.45-3.95a8.538 8.538 0 0 1-4.1-2.15 5.655 5.655 0 0 1-.42-.43c0-.01 0-.01-.01-.01a7.541 7.541 0 0 1-.69-.94 9.171 9.171 0 0 1-.52-1.04c-.08-.22-.15-.43-.21-.65a.076.076 0 0 0-.01-.04c-.04-.18-.08-.37-.11-.56a.22.22 0 0 1-.01-.08c-.02-.14-.04-.28-.05-.42a6.602 6.602 0 0 1 0-.89 617.144 617.144 0 0 0 67.78 10.19Z"></path>
  <path fill="#fed402" d="M409.45 301.52c-1.2.27-2.42.54-3.64.81q-1.845.405-3.72.81c-.96.21-1.93.41-2.91.62-.55.12-1.1.23-1.65.34-1.37.29-2.75.57-4.15.85h-.01a361.881 361.881 0 0 1-86.29-13.3 361.244 361.244 0 0 1-41.63-14.49 362.588 362.588 0 0 1-96.59-59.64l-.24-.21 10.24-10.97a347.22 347.22 0 0 0 92.37 56.97 345.723 345.723 0 0 0 69.51 20.83 351.946 351.946 0 0 0 70.6 5.97h.01l1.86 2c3.14 3.36 1.16 8.3-3.76 9.41Z"></path>
  <path fill="#fac600" d="m413.21 292.11-1.86-2h-.01a351.946 351.946 0 0 1-70.6-5.97c-9.59 2.31-21.12 4.94-33.66 7.51a361.881 361.881 0 0 0 86.29 13.3h.01c1.4-.28 2.78-.56 4.15-.85.346-.07.693-.142 1.04-.214l1.617-.34c.636-.135 1.275-.269 1.903-.406q1.875-.405 3.72-.81c1.22-.27 2.44-.54 3.64-.81 4.92-1.11 6.9-6.05 3.76-9.41Z"></path>
  <path fill="#f4d902" d="M134.43 197.67a4.263 4.263 0 0 0-.71 1.02 3.535 3.535 0 0 0-.16.34c-.04.12-.09.24-.12.36-.68 2.31.89 4.84 3.89 5.52q6.855 1.56 14.45 3.06a276.19 276.19 0 0 0 32.41-5.52c-17.94-.89-34.59-2.61-49.76-4.78zm152.91-63.44 10.25 10.98q8.58-7.365 16.54-15.49l-10.23-10.96a2.612 2.612 0 0 0-.25.23q-7.83 7.995-16.31 15.24z"></path>
  <circle cx="276.328" cy="369.042" r="22.5" fill="#e53950"></circle>
  <circle cx="194.053" cy="327.45" r="22.5" fill="#00c27a"></circle>
  <circle cx="186.413" cy="318.588" r="22.5" fill="#e53950"></circle>
  <path fill="#fac600" d="M155.398 449.925a22.5 22.5 0 0 1-34.796 25.032 22.5 22.5 0 1 0 34.796-25.032Z"></path>
  <path fill="#46cc8d" d="M374.64 204.92a537.51 537.51 0 0 1-117 13.19 538.681 538.681 0 0 1-105.86-10.14q-7.59-1.5-14.45-3.06c-3-.68-4.57-3.21-3.89-5.52.03-.12.08-.24.12-.36a3.535 3.535 0 0 1 .16-.34 4.263 4.263 0 0 1 .71-1.02l.02-.02 3.28-3.51L240.5 84.06l11.18-11.97a6.176 6.176 0 0 1 8.64 0l43.58 46.67 10.23 10.96 63.42 67.93c2.42 2.59.89 6.41-2.91 7.27Z"></path>
  <path fill="#00c27a" d="M374.64 204.92a537.51 537.51 0 0 1-117 13.19 538.681 538.681 0 0 1-105.86-10.14q-7.59-1.5-14.45-3.06c-3-.68-4.57-3.21-3.89-5.52.03-.12.08-.24.12-.36a3.535 3.535 0 0 1 .16-.34 4.263 4.263 0 0 1 .71-1.02 540.684 540.684 0 0 0 78.21 5.44c28.6-.08 66.39-7.53 91.83-13.41a16.884 16.884 0 0 0 8.55-27.97l-15.43-16.52-10.25-10.98-46.84-50.17 11.18-11.97a5.914 5.914 0 0 1 8.64 0l43.58 46.67 10.23 10.96 63.42 67.93c2.42 2.59.89 6.41-2.91 7.27Z"></path>
  <circle cx="309.007" cy="164.869" r="7.5" fill="#fed402"></circle>
  <circle cx="234.5" cy="136.722" r="7.5" fill="#0067c5"></circle>
  <path fill="#fed402" d="M314.13 129.72q-7.95 8.115-16.54 15.49a264.194 264.194 0 0 1-38.71 27.68 267.223 267.223 0 0 1-74.69 29.56 276.19 276.19 0 0 1-32.41 5.52q-7.59-1.5-14.45-3.06c-3-.68-4.57-3.21-3.89-5.52.03-.12.08-.24.12-.36a3.535 3.535 0 0 1 .16-.34 4.263 4.263 0 0 1 .71-1.02l.02-.02 3.28-3.51c40.49-2.55 79.66-14.33 113.57-34.19a248.67 248.67 0 0 0 36.04-25.72q8.46-7.23 16.31-15.24a2.612 2.612 0 0 1 .25-.23Z"></path>
  <path fill="#fac600" d="M134.43 197.67a4.263 4.263 0 0 0-.71 1.02 3.535 3.535 0 0 0-.16.34c-.04.12-.09.24-.12.36-.68 2.31.89 4.84 3.89 5.52q6.855 1.56 14.45 3.06a276.19 276.19 0 0 0 32.41-5.52c-17.94-.89-34.59-2.61-49.76-4.78zm152.91-63.44 10.25 10.98q8.58-7.365 16.54-15.49l-10.23-10.96a2.612 2.612 0 0 0-.25.23q-7.83 7.995-16.31 15.24z"></path>
  <circle cx="300.735" cy="230.47" r="22.5" fill="#00c27a"></circle>
  <circle cx="294.064" cy="220.148" r="22.5" fill="#e53950"></circle>
  <path fill="#fac600" d="m259.605 9.741 9.885 20.03a4.02 4.02 0 0 0 3.027 2.199l22.104 3.212a4.02 4.02 0 0 1 2.228 6.857l-15.994 15.59a4.02 4.02 0 0 0-1.157 3.559l3.776 22.014a4.02 4.02 0 0 1-5.833 4.238l-19.77-10.393a4.02 4.02 0 0 0-3.742 0L234.36 87.44a4.02 4.02 0 0 1-5.833-4.238l3.776-22.014a4.02 4.02 0 0 0-1.157-3.558l-15.994-15.591a4.02 4.02 0 0 1 2.228-6.857l22.104-3.212a4.02 4.02 0 0 0 3.027-2.2l9.885-20.029a4.02 4.02 0 0 1 7.21 0Z"></path>
  <path fill="#ca2e43" d="M280.306 346.9a22.489 22.489 0 0 1-21.054 36.785 22.497 22.497 0 1 0 21.054-36.785zm17.678-149.073a22.489 22.489 0 0 1-21.053 36.785 22.497 22.497 0 1 0 21.053-36.785zM190.39 296.445a22.489 22.489 0 0 1-21.053 36.785 22.497 22.497 0 1 0 21.053-36.785z"></path>
  <path fill="#fed402" d="M230.246 73.174c1.094.087 2.196.144 3.313.144a41.522 41.522 0 0 0 41.514-40.977l-2.556-.371a4.02 4.02 0 0 1-3.027-2.2l-9.885-20.029a4.02 4.02 0 0 0-7.21 0l-9.885 20.03a4.02 4.02 0 0 1-3.027 2.199l-22.104 3.212a4.02 4.02 0 0 0-2.228 6.857l15.994 15.59a4.02 4.02 0 0 1 1.157 3.559Z"></path>
</svg>
