<svg xmlns="http://www.w3.org/2000/svg" viewBox="0 0 512 512" id="christmas-ball">
  <path fill="#f1f6f9" d="M256 125.612a7.5 7.5 0 0 1-7.5-7.5V7.5a7.5 7.5 0 0 1 15 0v110.612a7.5 7.5 0 0 1-7.5 7.5Z"></path>
  <path fill="#46cc8d" d="M226.873 118.112h58.253a22.378 22.378 0 0 1 22.378 22.378v71.608H204.496V140.49a22.378 22.378 0 0 1 22.377-22.378Z"></path>
  <path fill="#00c27a" d="M285.127 118.112h-7.623v6.578a27.408 27.408 0 0 1-27.408 27.408h-45.6v60h103.008V140.49a22.378 22.378 0 0 0-22.377-22.378Z"></path>
  <path fill="#e53950" d="M423.09 337.41a166.627 166.627 0 0 1-11.75 61.66c-1.05 2.65-2.22 5.4-3.53 8.25q-1.875 4.065-3.96 8.01a167.151 167.151 0 0 1-296.07-.72 163.261 163.261 0 0 1-7.01-15.26 167.684 167.684 0 0 1 .42-124.93 163.675 163.675 0 0 1 7.46-15.85 167.152 167.152 0 0 1 294.71.01 164.691 164.691 0 0 1 7.45 15.84 166.587 166.587 0 0 1 12.28 62.99Z"></path>
  <path fill="#ca2e43" d="M410.81 274.42a164.691 164.691 0 0 0-7.45-15.84 167.281 167.281 0 0 0-117.568-85.593 167.788 167.788 0 0 1 72.568 70.593 164.691 164.691 0 0 1 7.45 15.84 167.206 167.206 0 0 1-184.584 227.43A167.163 167.163 0 0 0 410.81 274.42Z"></path>
  <path fill="#46cc8d" d="M423.09 337.41a166.627 166.627 0 0 1-11.75 61.66c-1.05 2.65-2.22 5.4-3.53 8.25q-1.875 4.065-3.96 8.01a55.7 55.7 0 0 0-10.74 5.35c-6.91 4.07-14.74 8.69-26.04 8.69-11.78 0-18.02-4.72-23.04-8.52-4.21-3.18-7.25-5.48-13.99-5.48s-9.78 2.3-13.99 5.48c-5.02 3.79-11.26 8.52-23.04 8.52-11.77 0-18.01-4.73-23.03-8.52-4.21-3.18-7.25-5.48-13.99-5.48s-9.78 2.3-13.99 5.48c-5.02 3.79-11.26 8.52-23.03 8.52-11.78 0-18.02-4.73-23.04-8.52-4.21-3.18-7.25-5.48-13.99-5.48-6.73 0-9.77 2.3-13.98 5.48-5.02 3.79-11.26 8.52-23.03 8.52-11.47 0-18.74-4.7-25.15-8.85-4.12-2.67-7.61-4.93-12-5.91a163.261 163.261 0 0 1-7.01-15.26 167.684 167.684 0 0 1 .42-124.93 163.675 163.675 0 0 1 7.46-15.85c3.95-1.06 7.34-3 11.06-5.12 6.55-3.75 13.97-7.99 25.22-7.99 11.78 0 18.02 4.72 23.04 8.52 4.21 3.18 7.25 5.48 13.99 5.48s9.78-2.3 13.99-5.48c5.02-3.8 11.26-8.52 23.04-8.52 11.77 0 18.01 4.72 23.03 8.52 4.21 3.18 7.25 5.48 13.99 5.48s9.78-2.3 13.99-5.48c5.02-3.8 11.26-8.52 23.03-8.52 11.78 0 18.02 4.72 23.04 8.52 4.21 3.18 7.25 5.48 13.99 5.48 6.73 0 9.77-2.3 13.98-5.48 5.02-3.8 11.26-8.52 23.03-8.52 11.25 0 18.67 4.24 25.21 7.99 3.72 2.13 7.11 4.07 11.08 5.13a164.691 164.691 0 0 1 7.45 15.84 166.587 166.587 0 0 1 12.28 62.99Z"></path>
  <path fill="#00c27a" d="M410.81 274.42a164.691 164.691 0 0 0-7.45-15.84c-3.97-1.06-7.36-3-11.08-5.13-6.54-3.75-13.96-7.99-25.21-7.99a37.2 37.2 0 0 0-7.366.705 164.765 164.765 0 0 1 6.106 13.255 166.57 166.57 0 0 1-20.51 162.383c4.817 3.592 10.958 7.567 21.77 7.567 11.3 0 19.13-4.62 26.04-8.69a55.7 55.7 0 0 1 10.74-5.35q2.984-5.646 5.528-11.545c.082-.19.175-.39.256-.58q.88-2.054 1.706-4.135a167.677 167.677 0 0 0-.53-124.65Z"></path>
  <circle cx="159.208" cy="337.413" r="19.358" fill="#f1f6f9"></circle>
  <circle cx="352.792" cy="337.413" r="19.358" fill="#f1f6f9"></circle>
  <path fill="#dde8ef" d="M359.812 319.388a19.331 19.331 0 0 1-24.195 26.934 19.35 19.35 0 1 0 24.195-26.934zm-193.584 0a19.331 19.331 0 0 1-24.196 26.934 19.35 19.35 0 1 0 24.196-26.934z"></path>
  <path fill="#f1f6f9" d="M91 110.524a7.5 7.5 0 0 1-7.5-7.5V7.5a7.5 7.5 0 0 1 15 0v95.524a7.5 7.5 0 0 1-7.5 7.5zm330 0a7.5 7.5 0 0 1-7.5-7.5V7.5a7.5 7.5 0 0 1 15 0v95.524a7.5 7.5 0 0 1-7.5 7.5zM256.056 471.323a7.517 7.517 0 0 1-7.524-7.476 7.435 7.435 0 0 1 7.427-7.475h.097a7.476 7.476 0 1 1 0 14.951zm45 0a7.517 7.517 0 0 1-7.524-7.476 7.435 7.435 0 0 1 7.427-7.475h.097a7.476 7.476 0 1 1 0 14.951zm-90 0a7.517 7.517 0 0 1-7.524-7.476 7.435 7.435 0 0 1 7.427-7.475h.097a7.476 7.476 0 1 1 0 14.951zm45-244.273a7.517 7.517 0 0 1-7.524-7.476 7.435 7.435 0 0 1 7.427-7.476h.097a7.476 7.476 0 1 1 0 14.952zm45 0a7.517 7.517 0 0 1-7.524-7.476 7.435 7.435 0 0 1 7.427-7.476h.097a7.476 7.476 0 1 1 0 14.952zm-90 0a7.517 7.517 0 0 1-7.524-7.476 7.435 7.435 0 0 1 7.427-7.476h.097a7.476 7.476 0 1 1 0 14.952z"></path>
  <path fill="#fed402" d="M280.85 347.34a4.014 4.014 0 0 0-1.15 3.56l3.77 22.01a4.019 4.019 0 0 1-5.83 4.24l-19.77-10.4a4.05 4.05 0 0 0-3.74 0l-19.77 10.4a4.019 4.019 0 0 1-5.83-4.24l2.22-12.95 1.55-9.06a4.014 4.014 0 0 0-1.15-3.56l-16-15.59a4.02 4.02 0 0 1 2.23-6.86l22.1-3.21a4.047 4.047 0 0 0 3.03-2.2l9.88-20.03a4.027 4.027 0 0 1 7.22 0l9.88 20.03a4.054 4.054 0 0 0 2.07 1.93 3.9 3.9 0 0 0 .96.27l22.1 3.21a4.02 4.02 0 0 1 2.23 6.86zM424.605 90.265l9.885 20.03a4.02 4.02 0 0 0 3.027 2.199l22.104 3.212a4.02 4.02 0 0 1 2.228 6.857l-15.994 15.59a4.02 4.02 0 0 0-1.157 3.56l3.776 22.014a4.02 4.02 0 0 1-5.833 4.238l-19.77-10.394a4.02 4.02 0 0 0-3.742 0l-19.77 10.394a4.02 4.02 0 0 1-5.833-4.238l3.776-22.015a4.02 4.02 0 0 0-1.157-3.558l-15.994-15.591a4.02 4.02 0 0 1 2.228-6.857l22.104-3.212a4.02 4.02 0 0 0 3.027-2.2l9.885-20.029a4.02 4.02 0 0 1 7.21 0zm-330 0 9.885 20.03a4.02 4.02 0 0 0 3.027 2.199l22.104 3.212a4.02 4.02 0 0 1 2.228 6.857l-15.994 15.59a4.02 4.02 0 0 0-1.157 3.56l3.776 22.014a4.02 4.02 0 0 1-5.833 4.238l-19.77-10.394a4.02 4.02 0 0 0-3.742 0l-19.77 10.394a4.02 4.02 0 0 1-5.833-4.238l3.776-22.015a4.02 4.02 0 0 0-1.157-3.558l-15.994-15.591a4.02 4.02 0 0 1 2.228-6.857l22.104-3.212a4.02 4.02 0 0 0 3.027-2.2l9.885-20.029a4.02 4.02 0 0 1 7.21 0z"></path>
  <path fill="#fac600" d="M280.85 347.34a4.014 4.014 0 0 0-1.15 3.56l3.77 22.01a4.019 4.019 0 0 1-5.83 4.24l-19.77-10.4a4.05 4.05 0 0 0-3.74 0l-19.77 10.4a4.019 4.019 0 0 1-5.83-4.24l2.22-12.95a71.961 71.961 0 0 0 29.2-20.07 70.912 70.912 0 0 0 11.61-18.48 3.9 3.9 0 0 0 .96.27l22.1 3.21a4.02 4.02 0 0 1 2.23 6.86zm165.231-209.184a4.014 4.014 0 0 0-1.15 3.56l3.77 22.01a4.019 4.019 0 0 1-5.83 4.24l-19.77-10.4a4.05 4.05 0 0 0-3.74 0l-19.77 10.4a4.019 4.019 0 0 1-5.83-4.24l2.22-12.95a71.961 71.961 0 0 0 29.2-20.07 70.912 70.912 0 0 0 11.61-18.48 3.9 3.9 0 0 0 .96.27l22.1 3.21a4.02 4.02 0 0 1 2.23 6.86zm-330 0a4.014 4.014 0 0 0-1.15 3.56l3.77 22.01a4.019 4.019 0 0 1-5.83 4.24l-19.77-10.4a4.05 4.05 0 0 0-3.74 0l-19.77 10.4a4.019 4.019 0 0 1-5.83-4.24l2.22-12.95a71.961 71.961 0 0 0 29.2-20.07 70.912 70.912 0 0 0 11.61-18.48 3.9 3.9 0 0 0 .96.27l22.1 3.21a4.02 4.02 0 0 1 2.23 6.86z"></path>
</svg>
